ffmpeg version 3.2.4 Copyright (c) 2000-2017 the FFmpeg developers
  built with Apple LLVM version 8.0.0 (clang-800.0.42.1)
  configuration: --prefix=/usr/local/Cellar/ffmpeg/3.2.4 --enable-shared --enable-pthreads --enable-gpl --enable-version3 --enable-hardcoded-tables --enable-avresample --cc=clang --host-cflags= --host-ldflags= --enable-libmp3lame --enable-libx264 --enable-libxvid --enable-opencl --disable-lzma --enable-vda
  libavutil      55. 34.101 / 55. 34.101
  libavcodec     57. 64.101 / 57. 64.101
  libavformat    57. 56.101 / 57. 56.101
  libavdevice    57.  1.100 / 57.  1.100
  libavfilter     6. 65.100 /  6. 65.100
  libavresample   3.  1.  0 /  3.  1.  0
  libswscale      4.  2.100 /  4.  2.100
  libswresample   2.  3.100 /  2.  3.100
  libpostproc    54.  1.100 / 54.  1.100
Input #0, image2pipe, from 'pipe:':
  Duration: N/A, bitrate: N/A
    Stream #0:0: Video: ppm, rgb24, 320x240, 20 fps, 20 tbr, 20 tbn, 20 tbc
[libx264 @ 0x7ffba5002400] using cpu capabilities: MMX2 SSE2Fast SSSE3 SSE4.2 AVX FMA3 AVX2 LZCNT BMI2
[libx264 @ 0x7ffba5002400] profile High, level 1.3
[libx264 @ 0x7ffba5002400] 264 - core 148 r2748 97eaef2 - H.264/MPEG-4 AVC codec - Copyleft 2003-2016 - http://www.videolan.org/x264.html - options: cabac=1 ref=3 deblock=1:0:0 analyse=0x3:0x113 me=hex subme=7 psy=1 psy_rd=1.00:0.00 mixed_ref=1 me_range=16 chroma_me=1 trellis=1 8x8dct=1 cqm=0 deadzone=21,11 fast_pskip=1 chroma_qp_offset=-2 threads=7 lookahead_threads=1 sliced_threads=0 nr=0 decimate=1 interlaced=0 bluray_compat=0 constrained_intra=0 bframes=3 b_pyramid=2 b_adapt=1 b_bias=0 direct=1 weightb=1 open_gop=0 weightp=2 keyint=250 keyint_min=20 scenecut=40 intra_refresh=0 rc_lookahead=40 rc=abr mbtree=1 bitrate=400 ratetol=1.0 qcomp=0.60 qpmin=0 qpmax=69 qpstep=4 ip_ratio=1.40 aq=1:1.00
Output #0, mp4, to './mission_records/b0fcbaf8-2359-4ed2-acdf-9f6f81a52bad/video.mp4':
  Metadata:
    encoder         : Lavf57.56.101
    Stream #0:0: Video: h264 (libx264) ([33][0][0][0] / 0x0021), yuv420p, 320x240, q=-1--1, 400 kb/s, 20 fps, 10240 tbn, 20 tbc
    Metadata:
      encoder         : Lavc57.64.101 libx264
    Side data:
      cpb: bitrate max/min/avg: 0/0/400000 buffer size: 0 vbv_delay: -1
Stream mapping:
  Stream #0:0 -> #0:0 (ppm (native) -> h264 (libx264))
frame=   32 fps=0.0 q=0.0 size=       0kB time=00:00:00.00 bitrate=N/A speed=   0x    frame=   41 fps= 39 q=0.0 size=       0kB time=00:00:00.00 bitrate=N/A speed=   0x    frame=   50 fps= 32 q=0.0 size=       0kB time=00:00:00.00 bitrate=N/A speed=   0x    frame=   59 fps= 28 q=26.0 size=      19kB time=00:00:00.25 bitrate= 621.1kbits/s speed=0.117x    frame=   68 fps= 26 q=27.0 size=      42kB time=00:00:00.70 bitrate= 488.1kbits/s speed=0.266x    frame=   76 fps= 22 q=27.0 size=      59kB time=00:00:01.10 bitrate= 442.4kbits/s speed=0.313x    frame=   85 fps= 21 q=26.0 size=      83kB time=00:00:01.55 bitrate= 441.2kbits/s speed=0.383x    frame=   94 fps= 20 q=26.0 size=     105kB time=00:00:02.00 bitrate= 431.7kbits/s speed=0.435x    frame=  103 fps= 20 q=24.0 size=     124kB time=00:00:02.45 bitrate= 414.2kbits/s speed=0.478x    frame=  112 fps= 20 q=23.0 size=     150kB time=00:00:02.90 bitrate= 423.1kbits/s speed=0.512x    frame=  120 fps= 19 q=26.0 size=     175kB time=00:00:03.30 bitrate= 434.7kbits/s speed=0.534x    frame=  129 fps= 19 q=27.0 size=     196kB time=00:00:03.75 bitrate= 427.6kbits/s speed=0.558x    frame=  139 fps= 19 q=26.0 size=     218kB time=00:00:04.25 bitrate= 419.5kbits/s speed=0.586x    frame=  148 fps= 19 q=27.0 size=     246kB time=00:00:04.70 bitrate= 428.0kbits/s speed=0.602x    frame=  157 fps= 19 q=27.0 size=     269kB time=00:00:05.15 bitrate= 427.7kbits/s speed=0.617x    frame=  162 fps= 18 q=-1.0 Lsize=     414kB time=00:00:07.95 bitrate= 427.1kbits/s speed=0.905x    
video:412kB audio:0kB subtitle:0kB other streams:0kB global headers:0kB muxing overhead: 0.536738%
[libx264 @ 0x7ffba5002400] frame I:20    Avg QP:19.02  size:  4528
[libx264 @ 0x7ffba5002400] frame P:82    Avg QP:21.71  size:  2649
[libx264 @ 0x7ffba5002400] frame B:60    Avg QP:21.65  size:  1895
[libx264 @ 0x7ffba5002400] consecutive B-frames: 48.1%  4.9%  7.4% 39.5%
[libx264 @ 0x7ffba5002400] mb I  I16..4: 30.3% 56.1% 13.5%
[libx264 @ 0x7ffba5002400] mb P  I16..4: 16.2% 25.1%  4.0%  P16..4: 24.8%  7.4%  7.0%  0.0%  0.0%    skip:15.4%
[libx264 @ 0x7ffba5002400] mb B  I16..4:  3.0%  6.2%  1.2%  B16..8: 30.8% 10.3%  7.1%  direct: 7.2%  skip:34.1%  L0:51.4% L1:42.5% BI: 6.1%
[libx264 @ 0x7ffba5002400] final ratefactor: 21.89
[libx264 @ 0x7ffba5002400] 8x8 transform intra:56.0% inter:58.3%
[libx264 @ 0x7ffba5002400] coded y,uvDC,uvAC intra: 53.1% 22.6% 2.6% inter: 19.1% 15.4% 0.1%
[libx264 @ 0x7ffba5002400] i16 v,h,dc,p: 12% 60%  8% 20%
[libx264 @ 0x7ffba5002400] i8 v,h,dc,ddl,ddr,vr,hd,vl,hu:  5% 24% 37%  4%  5%  3%  9%  3%  9%
[libx264 @ 0x7ffba5002400] i4 v,h,dc,ddl,ddr,vr,hd,vl,hu:  8% 28% 22%  6%  8%  4% 12%  3% 10%
[libx264 @ 0x7ffba5002400] i8c dc,h,v,p: 59% 35%  1%  5%
[libx264 @ 0x7ffba5002400] Weighted P-Frames: Y:9.8% UV:8.5%
[libx264 @ 0x7ffba5002400] ref P L0: 67.8%  6.4% 16.2%  8.9%  0.6%
[libx264 @ 0x7ffba5002400] ref B L0: 87.6% 10.2%  2.3%
[libx264 @ 0x7ffba5002400] ref B L1: 95.3%  4.7%
[libx264 @ 0x7ffba5002400] kb/s:416.27
